<?xml version="1.0" encoding="utf-8"?>
<!-- Generator: Adobe Illustrator 19.2.0, SVG Export Plug-In . SVG Version: 6.00 Build 0)  -->
<svg version="1.1" id="Layer_1" xmlns="http://www.w3.org/2000/svg" xmlns:xlink="http://www.w3.org/1999/xlink" x="0px" y="0px"
	 viewBox="0 0 16 16" style="enable-background:new 0 0 16 16;" xml:space="preserve">
<style type="text/css">
	.st0{fill:#FFFFFF;}
</style>
<path class="st0" d="M10.5,0C7.4,0,5,2.5,5,5.5c0,1.2,0.4,2.3,1,3.2l-5.7,5.7c-0.4,0.4-0.4,0.9,0,1.3C0.4,15.9,0.7,16,0.9,16
	s0.5-0.1,0.6-0.3L7.3,10c0.9,0.6,2,1,3.2,1c3,0,5.5-2.5,5.5-5.5C16,2.5,13.5,0,10.5,0z M10.5,9.2c-2,0-3.7-1.7-3.7-3.7
	c0-2,1.7-3.7,3.7-3.7c2,0,3.7,1.7,3.7,3.7C14.2,7.6,12.5,9.2,10.5,9.2z"/>
</svg>
